<svg width="488" height="429" viewBox="0 0 488 429" fill="none" xmlns="http://www.w3.org/2000/svg">
<path d="M156.111 429C149.555 429 144.433 427.366 140.746 424.097C137.058 420.829 134.395 416.743 132.756 411.84L1.22922 18.3857C0.40974 16.3429 0 14.5043 0 12.87C0 9.19288 1.22922 6.12859 3.68766 3.67717C6.1461 1.22572 9.21915 0 12.9068 0H66.9924C72.7288 0 77.0311 1.6343 79.8992 4.90288C83.1772 7.76286 85.2259 10.6229 86.0453 13.4829L189.914 329.104L293.169 13.4829C294.398 10.6229 296.447 7.76286 299.315 4.90288C302.593 1.6343 307.1 0 312.836 0L362.62 1.14247C365.898 1.14247 369.995 4.90287 375.526 3.67717C378.395 6.12859 379.829 9.19288 379.829 12.87C379.829 14.5043 379.419 16.3429 378.6 18.3857L247.073 411.84C245.434 416.743 242.771 420.829 239.083 424.097C235.395 427.366 230.274 429 223.718 429H156.111Z" fill="#FFC209"/>
<path d="M158.569 429C154.472 429 150.989 427.57 148.121 424.71C145.253 421.85 143.819 418.377 143.819 414.292V15.3214C143.819 10.8271 145.253 7.15001 148.121 4.29002C150.989 1.43001 154.472 0 158.569 0H336.806C369.995 0 397.038 5.10715 417.935 15.3214C438.831 25.1272 454.196 38.8143 464.03 56.3829C474.274 73.9515 479.395 94.38 479.395 117.669C479.395 133.194 476.527 146.881 470.791 158.73C465.464 170.17 458.704 179.567 450.509 186.921C442.724 194.276 434.939 199.996 427.154 204.081C443.133 211.436 457.27 223.693 469.562 240.853C481.854 258.013 488 278.441 488 302.139C488 326.653 482.468 348.511 471.406 367.714C460.343 386.917 443.953 402.034 422.237 413.066C400.521 423.689 373.683 429 341.723 429H158.569ZM229.249 364.037H331.889C354.015 364.037 370.814 358.113 382.287 346.264C393.76 334.007 399.496 319.299 399.496 302.139C399.496 284.161 393.555 269.249 381.673 257.4C370.2 245.551 353.605 239.627 331.889 239.627H229.249V364.037ZM229.249 175.89H325.743C347.459 175.89 363.644 170.783 374.297 160.569C385.36 149.946 390.892 136.259 390.892 119.507C390.892 102.347 385.36 89.0686 374.297 79.6714C363.644 69.8657 347.459 64.9629 325.743 64.9629H229.249V175.89Z" fill="#FFC209"/>
</svg>
